<?xml version="1.0" encoding="UTF-8" standalone="no"?>
<!-- Created with Inkscape (http://www.inkscape.org/) -->

<svg
   width="4000"
   height="4000"
   viewBox="0 0 1058.3333 1058.3333"
   version="1.1"
   id="svg1"
   xml:space="preserve"
   xmlns="http://www.w3.org/2000/svg"
   xmlns:svg="http://www.w3.org/2000/svg"><defs
     id="defs1"><clipPath
       clipPathUnits="userSpaceOnUse"
       id="clipPath94"><path
         id="path95"
         style="fill:#ff0000;fill-opacity:1;fill-rule:nonzero;stroke:none;stroke-width:0.264583"
         d="m 120.26863,777.26262 c -0.18553,5.40507 -0.33429,10.81135 -0.44804,16.21867 -0.15209,9.41364 -0.24603,18.82799 -0.42994,28.24115 -0.15558,10.99825 -0.58264,21.98785 -1.05989,32.97579 -0.61681,11.39129 -0.91438,22.7948 -1.1343,34.19946 -0.1809,9.78982 -0.25815,19.58115 -0.30902,29.37237 h 835.69474 c -0.014,-2.36675 -0.0641,-4.73353 -0.16383,-7.10036 -0.31128,-10.64609 -0.73911,-21.29208 -1.61229,-31.90917 -1.07143,-12.41497 -2.30008,-24.81628 -3.5042,-37.21891 -0.99417,-11.6957 -2.07769,-23.39647 -2.12698,-35.14564 v -29.63336 z m -66.310682,70.64634 v 70.3611 h 1.177189 c 0.08456,-8.43452 0.06795,-16.86957 -0.108521,-25.30647 -0.178152,-15.0214 -0.378111,-30.04643 -1.068668,-45.05463 z m 51.780822,37.43648 c -0.64177,6.11717 -1.37403,12.22539 -1.96836,18.34772 -0.0686,0.80637 -0.13797,1.61266 -0.20774,2.41898 0.0266,2.74878 0.0491,5.49767 0.0692,8.24653 0.008,1.30379 0.0156,2.60758 0.0222,3.91139 h 1.70635 c 0.0512,-9.86528 0.12923,-19.73077 0.3116,-29.5946 0.0214,-1.10993 0.0436,-2.22009 0.0667,-3.33002 z" /></clipPath><clipPath
       clipPathUnits="userSpaceOnUse"
       id="clipPath117"><path
         id="path118"
         style="fill:#ff0000;fill-opacity:1;fill-rule:nonzero;stroke:none;stroke-width:0.264583"
         d="m 46.603376,797.9277 c 0.407302,1.74607 0.78804,3.49655 1.16582,5.23947 0.517644,2.6212 0.979866,5.251 1.396296,7.88789 0.0122,-4.37555 -0.0074,-8.75112 -0.06666,-13.12736 z m 52.40352,0 c 0.162052,1.31104 0.313563,2.62356 0.459404,3.93671 0.01384,-1.31223 0.02898,-2.62451 0.04547,-3.93671 z m 12.032344,0 c -0.0958,7.58084 -0.14408,15.16248 -0.18035,22.74385 -0.0578,9.36734 0.0226,18.73528 -0.1757,28.10111 -0.10088,3.94697 -0.23694,7.89302 -0.36897,11.83907 -0.26164,7.82018 -5.76101,10.09684 -9.0687,7.07813 -2.629445,5.90561 -7.66513,8.19571 -12.172384,6.843 -3.966945,13.52103 -16.105293,14.46239 -20.586859,5.17901 -2.919587,8.86661 -9.912024,11.62346 -15.208374,8.78652 -3.633835,6.64448 -11.205972,7.53073 -16.257921,1.9296 -6.481228,4.40981 -16.148267,-0.18195 -17.209803,-14.64148 -0.577011,-7.85966 -1.099031,-15.72316 -1.62109,-23.58668 -0.11846,-1.84359 -0.233517,-3.6875 -0.345715,-5.53143 -0.706103,-0.42016 -1.39417,-0.93488 -2.053105,-1.54615 v 50.26721 H 946.26267 c -0.56679,-6.42787 -0.78655,-12.8905 -0.78444,-19.35644 0.10166,-11.75538 0.24792,-23.51069 0.58963,-35.26195 0.29366,-9.91203 0.75292,-19.82816 0.33485,-29.74443 -0.12768,-4.367 -0.27495,-8.73397 -0.46455,-13.09894 z" /></clipPath></defs><g
     id="layer1"><rect
       style="display:inline;opacity:1;fill:#72c7e3;fill-opacity:1;stroke:none;stroke-width:46.3021;stroke-dasharray:none;stroke-opacity:1"
       id="rect124"
       width="1438.5098"
       height="1284.8228"
       x="-178.27684"
       y="-116.80206" /><path
       id="path1"
       style="display:inline;opacity:1;fill:#fffbf2;fill-opacity:1;stroke:none;stroke-width:0.299544"
       d="M 337.77267,32.402502 204.5901,55.954032 389.01709,139.77528 a 197.21106,190.57666 0 0 1 89.56197,81.84513 L 532.58868,318.19436 406.69714,238.4292 A 280.83601,271.38837 0 0 0 301.02659,198.04253 L 197.00038,180.48648 91.067828,251.89039 38.719604,362.99421 85.332778,352.22485 a 950.58864,918.60978 0 0 1 200.016742,-24.95508 325.2463,314.30465 0 0 1 185.13959,51.50074 l 19.34095,12.2251 -56.60534,-5.67615 a 447.78713,432.72307 0 0 0 -144.19171,8.17418 l -97.24626,21.0721 -90.73865,113.72433 -9.443353,149.66786 97.633323,-81.83428 a 218.63739,211.28219 0 0 1 82.86471,-43.45316 l 75.22538,-20.89279 a 726.85298,702.40084 0 0 1 104.64271,-21.15736 l 64.74334,-8.34781 1.12705,81.15732 a 175.19045,169.29685 0 0 1 -7.19801,50.35351 l -19.25205,62.80754 -13.33872,98.18108 c -35.99757,6.16587 -68.09767,16.82619 -97.25195,25.27702 -38.42254,11.13739 -73.1943,18.64812 -102.46557,16.07912 -32.72027,-2.8717 -72.87859,-21.64286 -125.94426,-34.6599 -27.71435,-6.79836 -56.158372,-10.40574 -84.648581,-10.8195 v 102.50331 c 19.523298,0.39897 38.990161,2.90461 57.782011,7.51427 37.29543,9.14859 82.72622,32.18506 142.92616,37.46852 53.95049,4.73497 102.18546,-8.05427 143.71163,-20.09129 41.31116,-11.97468 77.50786,-23.32465 109.68478,-25.4341 37.93297,-2.48679 81.02242,6.85022 128.21905,18.59783 47.38459,11.79441 100.68376,26.20395 160.43672,24.52925 70.71459,-1.98193 129.92614,-22.85949 181.28919,-35.10122 V 794.46038 c -73.09109,11.28023 -132.84228,37.4337 -184.45644,38.88032 -38.70518,1.08479 -82.12212,-9.31312 -130.03289,-21.23851 -9.37252,-2.33289 -18.98495,-4.73013 -28.83441,-7.04918 l -47.59658,-86.22213 18.95544,-70.92693 6.57478,-139.55686 123.01058,2.42725 a 248.89357,240.52051 0 0 1 67.9509,10.53734 l 63.2659,18.76526 a 149.0982,144.08237 0 0 1 58.50082,32.87706 l 71.10204,64.74438 -17.53838,-102.19532 -30.39969,-47.19609 A 160.95661,155.54185 0 0 0 857.897,418.11333 427.78568,413.3945 0 0 0 765.6742,409.97325 l -75.49307,1.10692 104.86389,-16.66928 a 581.74601,562.17542 0 0 1 108.61094,-7.2874 122.35137,118.23534 0 0 1 84.84443,39.55675 l 31.11331,31.88488 V 341.95673 l -90.03065,-87.75743 -67.65581,9.31933 a 424.73304,410.44455 0 0 0 -113.20962,31.54639 l -87.79309,37.87521 118.46821,-111.36891 a 1128.996,1091.0153 0 0 1 71.4003,-61.6474 l 26.27747,-20.82095 a 211.54678,204.43011 0 0 1 64.92264,-35.09606 L 979.95001,91.307945 837.66361,72.073463 687.8221,106.93593 660.71575,167.32036 A 668.66123,646.16673 0 0 0 632.7743,241.7551 L 610.64128,314.30726 606.3449,184.84022 A 202.4551,195.64429 0 0 0 579.32278,93.285603 L 553.72022,50.43499 Z M 67.742119,924.80436 v 51.29506 c 22.132535,0.0399 44.226761,2.7419 65.494191,8.17212 42.03248,10.73216 86.83381,34.97576 141.95723,40.21046 47.87868,4.5467 92.7706,-7.252 133.36292,-19.2526 40.47154,-11.96477 78.36961,-24.30657 114.97696,-26.28364 42.51236,-2.29599 87.30995,9.0165 133.70915,21.64674 46.50872,12.66 96.6087,26.8791 150.62906,25.2031 47.00858,-1.4585 89.95245,-14.723 130.04735,-26.14516 18.27383,-5.2058 36.24989,-10.07124 53.87268,-13.69426 v -52.37923 c -24.09506,4.29111 -47.17958,10.71264 -69.23711,16.99638 -40.64281,11.57829 -79.21894,22.87568 -116.42649,24.03006 -42.77068,1.32698 -87.53635,-10.57581 -134.15305,-23.26525 -46.72622,-12.71925 -97.30095,-26.4562 -151.47602,-23.53034 -46.66061,2.52002 -88.64441,16.91084 -127.83665,28.49748 -39.07143,11.55094 -77.0388,20.54366 -112.15129,17.20928 -40.4657,-3.84271 -82.62892,-25.75831 -133.39186,-38.7196 -25.93225,-6.62126 -52.660374,-9.92965 -79.377071,-9.9906 z" /></g></svg>
