<?xml version="1.0" encoding="UTF-8" standalone="no"?>
<!-- Created with Inkscape (http://www.inkscape.org/) -->

<svg
   width="4000"
   height="4000"
   viewBox="0 0 1058.3333 1058.3333"
   version="1.1"
   id="svg1"
   xml:space="preserve"
   inkscape:version="1.4.2 (f4327f4, 2025-05-13)"
   sodipodi:docname="Paradise Transition Icon.svg"
   xmlns:inkscape="http://www.inkscape.org/namespaces/inkscape"
   xmlns:sodipodi="http://sodipodi.sourceforge.net/DTD/sodipodi-0.dtd"
   xmlns="http://www.w3.org/2000/svg"
   xmlns:svg="http://www.w3.org/2000/svg"><sodipodi:namedview
     id="namedview1"
     pagecolor="#ffffff"
     bordercolor="#000000"
     borderopacity="0.25"
     inkscape:showpageshadow="2"
     inkscape:pageopacity="0.0"
     inkscape:pagecheckerboard="0"
     inkscape:deskcolor="#d1d1d1"
     inkscape:document-units="mm"
     showgrid="false"
     inkscape:zoom="0.17215734"
     inkscape:cx="2651.6441"
     inkscape:cy="2332.1689"
     inkscape:window-width="2400"
     inkscape:window-height="1261"
     inkscape:window-x="2391"
     inkscape:window-y="-9"
     inkscape:window-maximized="1"
     inkscape:current-layer="layer1"><inkscape:grid
       id="grid11"
       units="mm"
       originx="0"
       originy="0"
       spacingx="0.99999997"
       spacingy="0.99999997"
       empcolor="#0099e5"
       empopacity="0.30196078"
       color="#0099e5"
       opacity="0.14901961"
       empspacing="5"
       enabled="true"
       visible="false" /></sodipodi:namedview><defs
     id="defs1"><inkscape:path-effect
       effect="fillet_chamfer"
       id="path-effect15"
       is_visible="true"
       lpeversion="1"
       nodesatellites_param="F,0,0,1,0,0,0,1 @ F,0,0,1,0,0,0,1 @ F,0,0,1,0,0,0,1 @ F,0,0,1,0,0,0,1 @ F,0,0,1,0,0,0,1 @ F,0,0,1,0,63.806933,0,1 @ F,0,1,1,0,66.755866,0,1 @ F,0,0,1,0,63.806933,0,1 @ F,0,0,1,0,0,0,1 @ F,0,0,1,0,0,0,1 @ F,0,0,1,0,0,0,1 | F,0,0,1,0,66.755866,0,1 @ F,0,0,1,0,63.806933,0,1 @ F,0,0,1,0,0,0,1 @ F,0,0,1,0,0,0,1 @ F,0,0,1,0,0,0,1 @ F,0,0,1,0,0,0,1 @ F,0,0,1,0,0,0,1 @ F,0,0,1,0,63.806933,0,1"
       radius="0"
       unit="px"
       method="auto"
       mode="F"
       chamfer_steps="1"
       flexible="false"
       use_knot_distance="true"
       apply_no_radius="true"
       apply_with_radius="true"
       only_selected="false"
       hide_knots="false" /><inkscape:path-effect
       effect="fillet_chamfer"
       id="path-effect14"
       is_visible="true"
       lpeversion="1"
       nodesatellites_param="F,0,0,1,0,0,0,1 @ F,0,0,1,0,14.107164,0,1 @ F,0,0,1,0,0,0,1 @ F,0,0,1,0,14.107164,0,1 @ F,0,0,1,0,0,0,1 @ F,0,0,1,0,0,0,1 @ F,0,0,1,0,0,0,1 @ F,0,0,1,0,12.645152,0,1"
       radius="0"
       unit="px"
       method="auto"
       mode="F"
       chamfer_steps="1"
       flexible="false"
       use_knot_distance="true"
       apply_no_radius="true"
       apply_with_radius="true"
       only_selected="false"
       hide_knots="false" /><inkscape:path-effect
       effect="fillet_chamfer"
       id="path-effect12"
       is_visible="true"
       lpeversion="1"
       nodesatellites_param="F,0,0,1,0,0,0,1 @ F,0,0,1,0,9.7470265,0,1 @ F,0,0,1,0,0,0,1 @ F,0,1,1,0,9.7470265,0,1 @ F,0,0,1,0,0,0,1 @ F,0,0,1,0,0,0,1 @ F,0,0,1,0,0,0,1 @ F,0,0,1,0,0,0,1"
       radius="0"
       unit="px"
       method="auto"
       mode="F"
       chamfer_steps="1"
       flexible="false"
       use_knot_distance="true"
       apply_no_radius="true"
       apply_with_radius="true"
       only_selected="false"
       hide_knots="false" /><inkscape:path-effect
       effect="fillet_chamfer"
       id="path-effect10"
       is_visible="true"
       lpeversion="1"
       nodesatellites_param="F,0,0,1,0,0,0,1 @ F,0,0,1,0,9.7888035,0,1 @ F,0,0,1,0,0,0,1 @ F,0,1,1,0,9.7888035,0,1 @ F,0,0,1,0,0,0,1 @ F,0,0,1,0,0,0,1 @ F,0,0,1,0,0,0,1 @ F,0,0,1,0,0,0,1"
       radius="0"
       unit="px"
       method="auto"
       mode="F"
       chamfer_steps="1"
       flexible="false"
       use_knot_distance="true"
       apply_no_radius="true"
       apply_with_radius="true"
       only_selected="false"
       hide_knots="false" /><inkscape:path-effect
       effect="fillet_chamfer"
       id="path-effect9"
       is_visible="true"
       lpeversion="1"
       nodesatellites_param="F,0,0,1,0,0,0,1 @ F,0,0,1,0,0,0,1 @ F,0,0,1,0,76.093862,0,1 @ F,0,0,1,0,0,0,1 @ F,0,0,1,0,0,0,1 @ F,0,1,1,0,76.093862,0,1 @ F,0,0,1,0,0,0,1 @ F,0,0,1,0,0,0,1 @ F,0,0,1,0,0,0,1"
       radius="0"
       unit="px"
       method="auto"
       mode="F"
       chamfer_steps="1"
       flexible="false"
       use_knot_distance="true"
       apply_no_radius="true"
       apply_with_radius="true"
       only_selected="false"
       hide_knots="false" /><inkscape:path-effect
       effect="fillet_chamfer"
       id="path-effect16"
       is_visible="true"
       lpeversion="1"
       nodesatellites_param="F,0,0,1,0,0,0,1 @ F,0,0,1,0,56.680373,0,1 @ F,0,0,1,0,0,0,1 @ F,0,0,1,0,50.682523,0,1 @ F,0,0,1,0,0,0,1 @ F,0,0,1,0,0,0,1 @ F,0,0,1,0,0,0,1 @ F,0,0,1,0,88.58998,0,1 @ F,0,0,1,0,88.58998,0,1 @ F,0,0,1,0,0,0,1 @ F,0,0,1,0,63.926541,0,1 @ F,0,0,1,0,0,0,1 @ F,0,0,1,0,0,0,1 @ F,0,0,1,0,0,0,1 @ F,0,0,1,0,42.17176,0,1 @ F,0,0,1,0,46.823178,0,1 @ F,0,0,1,0,0,0,1 @ F,0,0,1,0,23.238883,0,1 @ F,0,0,1,0,0,0,1 @ F,0,0,1,0,0,0,1 @ F,0,0,1,0,0,0,1 @ F,0,0,1,0,0,0,1 @ F,0,0,1,0,0,0,1 @ F,0,0,1,0,0,0,1 @ F,0,0,1,0,30.351351,0,1 @ F,0,1,1,0,30.351351,0,1 @ F,0,0,1,0,0,0,1 @ F,0,0,1,0,0,0,1 @ F,0,0,1,0,60.470293,0,1 @ F,0,0,1,0,41.509609,0,1 @ F,0,0,1,0,0,0,1 @ F,0,0,1,0,47.76393,0,1 @ F,0,0,1,0,47.76393,0,1 @ F,0,0,1,0,0,0,1 @ F,0,0,1,0,0,0,1 @ F,0,0,1,0,0,0,1 @ F,0,0,1,0,51.965842,0,1 @ F,0,0,1,0,0,0,1 @ F,0,0,1,0,41.859239,0,1 @ F,0,0,1,0,33.007058,0,1 @ F,0,0,1,0,0,0,1 @ F,0,0,1,0,0,0,1 @ F,0,0,1,0,0,0,1 @ F,0,0,1,0,35.856633,0,1 @ F,0,0,1,0,0,0,1 @ F,0,0,1,0,44.36589,0,1 @ F,0,0,1,0,0,0,1 @ F,0,0,1,0,0,0,1"
       radius="0"
       unit="px"
       method="auto"
       mode="F"
       chamfer_steps="1"
       flexible="false"
       use_knot_distance="true"
       apply_no_radius="true"
       apply_with_radius="true"
       only_selected="false"
       hide_knots="false" /><inkscape:path-effect
       effect="spiro"
       id="path-effect13"
       is_visible="true"
       lpeversion="1" /><inkscape:path-effect
       effect="spiro"
       id="path-effect11"
       is_visible="true"
       lpeversion="1" /><inkscape:path-effect
       effect="spiro"
       id="path-effect8"
       is_visible="true"
       lpeversion="1" /><inkscape:path-effect
       effect="spiro"
       id="path-effect7"
       is_visible="true"
       lpeversion="1" /><inkscape:path-effect
       effect="spiro"
       id="path-effect6"
       is_visible="true"
       lpeversion="1" /><inkscape:path-effect
       effect="spiro"
       id="path-effect5"
       is_visible="true"
       lpeversion="1" /><inkscape:path-effect
       effect="fillet_chamfer"
       id="path-effect4"
       is_visible="true"
       lpeversion="1"
       nodesatellites_param="F,0,0,1,0,0,0,1 @ F,0,0,1,0,41.416732,0,1 @ F,0,0,1,0,48.548573,0,1 @ F,0,0,1,0,38.442872,0,1 @ F,0,0,1,0,35.392252,0,1 @ F,0,0,1,0,21.832169,0,1 @ F,0,0,1,0,0,0,1 @ F,0,0,1,0,35.392252,0,1 @ F,0,0,1,0,45.497458,0,1 @ F,0,0,1,0,48.548573,0,1 @ F,0,1,1,0,21.832169,0,1 @ F,0,0,1,0,0,0,1"
       radius="0"
       unit="px"
       method="auto"
       mode="F"
       chamfer_steps="1"
       flexible="false"
       use_knot_distance="true"
       apply_no_radius="true"
       apply_with_radius="true"
       only_selected="false"
       hide_knots="false" /><inkscape:path-effect
       effect="fillet_chamfer"
       id="path-effect3"
       is_visible="true"
       lpeversion="1"
       nodesatellites_param="F,0,0,1,0,0,0,1 @ F,0,0,1,0,144.31349,0,1 @ F,0,0,1,0,0,0,1 @ F,0,0,1,0,0,0,1 @ F,0,0,1,0,41.498253,0,1 @ F,0,0,1,0,0,0,1 @ F,0,0,1,0,0,0,1 @ F,0,0,1,0,65.268867,0,1 @ F,0,0,1,0,74.934549,0,1 @ F,0,0,1,0,0,0,1 @ F,0,0,1,0,28.660225,0,1 @ F,0,0,1,0,33.788949,0,1 @ F,0,0,1,0,0,0,1 @ F,0,0,1,0,0,0,1 @ F,0,0,1,0,120.65703,0,1 @ F,0,0,1,0,0,0,1 @ F,0,0,1,0,0,0,1 @ F,0,0,1,0,0,0,1 @ F,0,0,1,0,0,0,1 @ F,0,0,1,0,0,0,1 @ F,0,0,1,0,0,0,1 @ F,0,0,1,0,0,0,1 @ F,0,0,1,0,0,0,1 @ F,0,0,1,0,0,0,1 @ F,0,0,1,0,72.894392,0,1 @ F,0,0,1,0,40.452997,0,1 @ F,0,0,1,0,0,0,1 @ F,0,0,1,0,0,0,1 @ F,0,0,1,0,31.951924,0,1 @ F,0,0,1,0,0,0,1 @ F,0,0,1,0,0,0,1 @ F,0,0,1,0,32.045054,0,1 @ F,0,0,1,0,46.680408,0,1 @ F,0,0,1,0,0,0,1 @ F,0,0,1,0,0,0,1 @ F,0,0,1,0,29.686756,0,1 @ F,0,0,1,0,0,0,1 @ F,0,0,1,0,0,0,1 @ F,0,0,1,0,43.326636,0,1 @ F,0,0,1,0,66.968764,0,1 @ F,0,0,1,0,0,0,1 @ F,0,0,1,0,0,0,1 @ F,0,0,1,0,29.545354,0,1 @ F,0,0,1,0,29.545354,0,1 @ F,0,0,1,0,0,0,1 @ F,0,0,1,0,29.292152,0,1 @ F,0,0,1,0,40.869607,0,1 @ F,0,0,1,0,0,0,1"
       radius="0"
       unit="px"
       method="auto"
       mode="F"
       chamfer_steps="1"
       flexible="false"
       use_knot_distance="true"
       apply_no_radius="true"
       apply_with_radius="true"
       only_selected="false"
       hide_knots="false" /><inkscape:path-effect
       effect="fillet_chamfer"
       id="path-effect2"
       is_visible="true"
       lpeversion="1"
       nodesatellites_param="F,0,0,1,0,0,0,1 @ F,0,0,1,0,0,0,1 @ F,0,0,1,0,0,0,1 @ F,0,0,1,0,0,0,1 @ F,0,0,1,0,50.041764,0,1 @ F,0,0,1,0,0,0,1 @ F,0,0,1,0,0,0,1 @ F,0,0,1,0,0,0,1 @ F,0,0,1,0,0,0,1 @ F,0,0,1,0,0,0,1 @ F,0,0,1,0,0,0,1 @ F,0,0,1,0,0,0,1 @ F,0,0,1,0,0,0,1 @ F,0,0,1,0,0,0,1 @ F,0,0,1,0,0,0,1 @ F,0,0,1,0,0,0,1 @ F,0,0,1,0,0,0,1 @ F,0,0,1,0,0,0,1 @ F,0,0,1,0,0,0,1 @ F,0,0,1,0,0,0,1 @ F,0,0,1,0,0,0,1 @ F,0,0,1,0,0,0,1 @ F,0,0,1,0,0,0,1 @ F,0,0,1,0,0,0,1 @ F,0,0,1,0,0,0,1 @ F,0,0,1,0,0,0,1 @ F,0,0,1,0,0,0,1 @ F,0,0,1,0,0,0,1 @ F,0,0,1,0,0,0,1 @ F,0,0,1,0,0,0,1 @ F,0,0,1,0,0,0,1 @ F,0,0,1,0,0,0,1 @ F,0,0,1,0,0,0,1 @ F,0,0,1,0,0,0,1 @ F,0,0,1,0,0,0,1 @ F,0,0,1,0,0,0,1 @ F,0,0,1,0,0,0,1 @ F,0,0,1,0,0,0,1 @ F,0,0,1,0,0,0,1 @ F,0,0,1,0,0,0,1 @ F,0,0,1,0,0,0,1 @ F,0,0,1,0,0,0,1 @ F,0,0,1,0,0,0,1 @ F,0,0,1,0,0,0,1 @ F,0,0,1,0,0,0,1 @ F,0,0,1,0,0,0,1 @ F,0,0,1,0,0,0,1 @ F,0,0,1,0,0,0,1"
       radius="0"
       unit="px"
       method="auto"
       mode="F"
       chamfer_steps="1"
       flexible="false"
       use_knot_distance="true"
       apply_no_radius="true"
       apply_with_radius="true"
       only_selected="false"
       hide_knots="false" /><clipPath
       clipPathUnits="userSpaceOnUse"
       id="clipPath94"><path
         id="path95"
         style="fill:#ff0000;fill-opacity:1;fill-rule:nonzero;stroke:none;stroke-width:0.264583"
         d="m 120.26863,777.26262 c -0.18553,5.40507 -0.33429,10.81135 -0.44804,16.21867 -0.15209,9.41364 -0.24603,18.82799 -0.42994,28.24115 -0.15558,10.99825 -0.58264,21.98785 -1.05989,32.97579 -0.61681,11.39129 -0.91438,22.7948 -1.1343,34.19946 -0.1809,9.78982 -0.25815,19.58115 -0.30902,29.37237 h 835.69474 c -0.014,-2.36675 -0.0641,-4.73353 -0.16383,-7.10036 -0.31128,-10.64609 -0.73911,-21.29208 -1.61229,-31.90917 -1.07143,-12.41497 -2.30008,-24.81628 -3.5042,-37.21891 -0.99417,-11.6957 -2.07769,-23.39647 -2.12698,-35.14564 v -29.63336 z m -66.310682,70.64634 v 70.3611 h 1.177189 c 0.08456,-8.43452 0.06795,-16.86957 -0.108521,-25.30647 -0.178152,-15.0214 -0.378111,-30.04643 -1.068668,-45.05463 z m 51.780822,37.43648 c -0.64177,6.11717 -1.37403,12.22539 -1.96836,18.34772 -0.0686,0.80637 -0.13797,1.61266 -0.20774,2.41898 0.0266,2.74878 0.0491,5.49767 0.0692,8.24653 0.008,1.30379 0.0156,2.60758 0.0222,3.91139 h 1.70635 c 0.0512,-9.86528 0.12923,-19.73077 0.3116,-29.5946 0.0214,-1.10993 0.0436,-2.22009 0.0667,-3.33002 z" /></clipPath><clipPath
       clipPathUnits="userSpaceOnUse"
       id="clipPath117"><path
         id="path118"
         style="fill:#ff0000;fill-opacity:1;fill-rule:nonzero;stroke:none;stroke-width:0.264583"
         d="m 46.603376,797.9277 c 0.407302,1.74607 0.78804,3.49655 1.16582,5.23947 0.517644,2.6212 0.979866,5.251 1.396296,7.88789 0.0122,-4.37555 -0.0074,-8.75112 -0.06666,-13.12736 z m 52.40352,0 c 0.162052,1.31104 0.313563,2.62356 0.459404,3.93671 0.01384,-1.31223 0.02898,-2.62451 0.04547,-3.93671 z m 12.032344,0 c -0.0958,7.58084 -0.14408,15.16248 -0.18035,22.74385 -0.0578,9.36734 0.0226,18.73528 -0.1757,28.10111 -0.10088,3.94697 -0.23694,7.89302 -0.36897,11.83907 -0.26164,7.82018 -5.76101,10.09684 -9.0687,7.07813 -2.629445,5.90561 -7.66513,8.19571 -12.172384,6.843 -3.966945,13.52103 -16.105293,14.46239 -20.586859,5.17901 -2.919587,8.86661 -9.912024,11.62346 -15.208374,8.78652 -3.633835,6.64448 -11.205972,7.53073 -16.257921,1.9296 -6.481228,4.40981 -16.148267,-0.18195 -17.209803,-14.64148 -0.577011,-7.85966 -1.099031,-15.72316 -1.62109,-23.58668 -0.11846,-1.84359 -0.233517,-3.6875 -0.345715,-5.53143 -0.706103,-0.42016 -1.39417,-0.93488 -2.053105,-1.54615 v 50.26721 H 946.26267 c -0.56679,-6.42787 -0.78655,-12.8905 -0.78444,-19.35644 0.10166,-11.75538 0.24792,-23.51069 0.58963,-35.26195 0.29366,-9.91203 0.75292,-19.82816 0.33485,-29.74443 -0.12768,-4.367 -0.27495,-8.73397 -0.46455,-13.09894 z" /></clipPath></defs><g
     inkscape:groupmode="layer"
     id="layer1"
     inkscape:label="Paradise Transition Icon"><path
       id="path1"
       style="display:inline;opacity:1;fill:#ccdd51;fill-opacity:1;stroke-width:0.299544"
       d="M 337.77267,39.137666 204.5901,62.689195 389.01709,146.51044 a 197.21106,190.57666 0 0 1 89.56196,81.84514 l 54.00963,96.57394 -125.89154,-79.76515 A 280.83601,271.38837 0 0 0 301.02659,204.77769 L 197.00037,187.22165 91.067825,258.62556 38.7196,369.72937 85.332774,358.96001 a 950.58864,918.60978 0 0 1 200.016736,-24.95507 325.2463,314.30465 0 0 1 185.1396,51.50073 l 19.34095,12.2251 -56.60534,-5.67614 a 447.78713,432.72307 0 0 0 -144.19171,8.17417 l -97.24627,21.07211 -90.73864,113.72432 -9.443357,149.66786 97.633317,-81.83427 a 218.63739,211.28219 0 0 1 82.86471,-43.45317 l 75.22539,-20.89278 a 726.85298,702.40084 0 0 1 104.6427,-21.15736 l 64.74334,-8.34781 1.12706,81.15732 a 175.19045,169.29685 0 0 1 -7.19801,50.35351 l -19.25205,62.80753 -10.21953,75.22177 -80.69533,12.62559 c -49.61256,7.76262 -97.15741,25.42313 -139.80698,51.9312 l -89.80021,55.81364 67.64343,17.42323 a 268.99298,268.99298 0 0 0 124.14539,2.38332 l 127.7891,-27.73268 a 302.95311,302.95311 0 0 1 130.38325,0.41393 l 120.36062,26.9229 a 315.55454,315.55454 0 0 0 125.05593,2.56987 l 57.37014,-10.3787 -74.41406,-57.69725 C 809.70774,822.20009 763.34672,801.66025 714.13006,792.98003 L 629.883,778.1215 l -29.01166,-52.55545 18.95543,-70.92694 6.57478,-139.55685 123.01059,2.42724 a 248.89357,240.52051 0 0 1 67.95089,10.53735 l 63.26591,18.76526 a 149.0982,144.08237 0 0 1 58.50082,32.87706 l 71.10214,64.74437 -17.53849,-102.19532 -30.39969,-47.19609 A 160.95661,155.54185 0 0 0 857.89699,424.8485 427.78568,413.3945 0 0 0 765.6742,416.70841 l -75.49307,1.10692 104.86389,-16.66927 a 581.74601,562.17542 0 0 1 108.61094,-7.28741 122.35137,118.23534 0 0 1 84.84443,39.55676 l 31.11331,31.88487 V 348.69189 l -90.03065,-87.75742 -67.65581,9.31932 a 424.73304,410.44455 0 0 0 -113.20963,31.5464 L 660.92452,339.6754 779.39273,228.30649 a 1128.996,1091.0153 0 0 1 71.4003,-61.6474 l 26.27747,-20.82096 a 211.54678,204.43011 0 0 1 64.92265,-35.09605 L 979.95001,98.043108 837.66361,78.808626 687.8221,113.6711 660.71575,174.05553 a 668.66123,646.16673 0 0 0 -27.94146,74.43473 L 610.64128,321.04243 606.3449,191.57539 A 202.4551,195.64429 0 0 0 579.32278,100.02077 L 553.72021,57.170154 Z m 350.99873,517.313124 43.48003,27.40195 a 65.383294,62.633314 0 0 1 24.94422,29.48347 l 11.23393,27.47481 31.53968,-23.16345 a 60.645477,58.094766 0 0 1 37.2799,-11.98944 l 42.86146,0.25838 c 0,0 -52.33,-21.76136 -78.05673,-15.33808 -10.01662,2.50087 -24.01766,19.55591 -24.01766,19.55591 l -9.47281,-21.17391 a 36.773599,35.226925 0 0 0 -25.48837,-20.43854 z m -307.91971,95.63861 -51.52863,4.08295 -6.82026,17.96687 -34.85782,-16.33337 -33.34215,26.13328 25.9984,-5.38829 a 41.367203,44.582008 0 0 1 25.71317,3.5884 l 25.5819,13.2333 6.70605,-16.71267 a 30.283074,32.636488 0 0 1 18.39526,-18.07073 z m 176.52152,277.68693 c -23.81675,0.78463 -47.6671,3.27227 -65.79598,6.61303 L 367.3998,959.27271 a 370.30062,370.30062 0 0 1 -125.75202,1.45884 L 125.16084,942.04792 58.233134,1019.1957 h 8.422232 l 949.802534,-5.4338 -59.64033,-66.33756 -90.60223,14.28751 c -34.80943,5.48932 -90.89856,3.66602 -125.33446,-3.81682 -36.02535,-7.82823 -81.31965,-17.44968 -117.91373,-24.5122 -17.99423,-3.47283 -41.77718,-4.39115 -65.59394,-3.6065 z"
       inkscape:label="Paradise Transition Icon" /></g></svg>
